<mxfile host="app.diagrams.net" agent="Mozilla/5.0 (Windows NT 10.0; Win64; x64) AppleWebKit/537.36 (KHTML, like Gecko) Chrome/134.0.0.0 Safari/537.36" version="26.0.10">
  <diagram name="第 1 页" id="CUIRnP8APS25mf9R00Ao">
    <mxGraphModel dx="1885" dy="998" grid="0" gridSize="10" guides="1" tooltips="1" connect="1" arrows="1" fold="1" page="1" pageScale="1" pageWidth="827" pageHeight="1169" math="0" shadow="0">
      <root>
        <mxCell id="0" />
        <mxCell id="1" parent="0" />
        <mxCell id="aDKeScB1y4_EoyUzjA0F-6" value="&lt;font style=&quot;font-size: 30px;&quot; face=&quot;Times New Roman&quot;&gt;需求&lt;/font&gt;" style="rounded=0;whiteSpace=wrap;html=1;fillColor=#e1d5e7;strokeColor=#9673a6;" vertex="1" parent="1">
          <mxGeometry x="0.0009090909090048171" y="0.002727272727241825" width="100" height="60" as="geometry" />
        </mxCell>
        <mxCell id="aDKeScB1y4_EoyUzjA0F-7" value="" style="shape=flexArrow;endArrow=classic;html=1;rounded=0;fillColor=#986EBD;" edge="1" parent="1">
          <mxGeometry width="50" height="50" relative="1" as="geometry">
            <mxPoint x="120.000909090909" y="29.582727272727226" as="sourcePoint" />
            <mxPoint x="170.000909090909" y="29.752727272727242" as="targetPoint" />
          </mxGeometry>
        </mxCell>
        <mxCell id="aDKeScB1y4_EoyUzjA0F-8" value="" style="rounded=0;whiteSpace=wrap;html=1;fillColor=#dae8fc;strokeColor=#6c8ebf;" vertex="1" parent="1">
          <mxGeometry x="190.000909090909" y="0.002727272727241825" width="620" height="60" as="geometry" />
        </mxCell>
        <mxCell id="aDKeScB1y4_EoyUzjA0F-9" value="&lt;font face=&quot;Times New Roman&quot; style=&quot;font-size: 30px;&quot;&gt;总目标&lt;/font&gt;" style="rounded=0;whiteSpace=wrap;html=1;fillColor=#e1d5e7;strokeColor=#9673a6;" vertex="1" parent="1">
          <mxGeometry x="0.0009090909090048171" y="120.00272727272724" width="100" height="60" as="geometry" />
        </mxCell>
        <mxCell id="aDKeScB1y4_EoyUzjA0F-10" value="" style="shape=flexArrow;endArrow=classic;html=1;rounded=0;fillColor=#986EBD;" edge="1" parent="1">
          <mxGeometry width="50" height="50" relative="1" as="geometry">
            <mxPoint x="120.000909090909" y="149.58272727272717" as="sourcePoint" />
            <mxPoint x="170.000909090909" y="149.75272727272724" as="targetPoint" />
          </mxGeometry>
        </mxCell>
        <mxCell id="aDKeScB1y4_EoyUzjA0F-11" value="&lt;font style=&quot;font-size: 30px;&quot; face=&quot;Times New Roman&quot;&gt;分布式容错一致性的自学习方法&lt;/font&gt;" style="rounded=0;whiteSpace=wrap;html=1;fillColor=#f8cecc;strokeColor=#b85450;fillStyle=auto;" vertex="1" parent="1">
          <mxGeometry x="190.000909090909" y="120.00272727272724" width="620" height="60" as="geometry" />
        </mxCell>
        <mxCell id="aDKeScB1y4_EoyUzjA0F-12" value="&lt;font style=&quot;font-size: 30px;&quot; face=&quot;Times New Roman&quot;&gt;研究&lt;/font&gt;&lt;div&gt;&lt;font style=&quot;font-size: 30px;&quot; face=&quot;Times New Roman&quot;&gt;目标&lt;/font&gt;&lt;/div&gt;" style="rounded=0;whiteSpace=wrap;html=1;fillColor=#e1d5e7;strokeColor=#9673a6;" vertex="1" parent="1">
          <mxGeometry x="4.000909090909005" y="240.00272727272724" width="96" height="110" as="geometry" />
        </mxCell>
        <mxCell id="aDKeScB1y4_EoyUzjA0F-13" value="&lt;font style=&quot;font-size: 30px;&quot; face=&quot;Times New Roman&quot;&gt;研究&lt;/font&gt;&lt;div&gt;&lt;font face=&quot;Times New Roman&quot;&gt;&lt;span style=&quot;font-size: 30px;&quot;&gt;内容&lt;/span&gt;&lt;/font&gt;&lt;/div&gt;" style="rounded=0;whiteSpace=wrap;html=1;fillColor=#e1d5e7;strokeColor=#9673a6;" vertex="1" parent="1">
          <mxGeometry x="4.000909090909005" y="410.00272727272727" width="96" height="110" as="geometry" />
        </mxCell>
        <mxCell id="aDKeScB1y4_EoyUzjA0F-14" value="&lt;font face=&quot;Times New Roman&quot;&gt;&lt;span style=&quot;font-size: 30px;&quot;&gt;关键科学问题&lt;/span&gt;&lt;/font&gt;" style="rounded=0;whiteSpace=wrap;html=1;fillColor=#e1d5e7;strokeColor=#9673a6;" vertex="1" parent="1">
          <mxGeometry x="4.000909090909005" y="580.0027272727273" width="96" height="110" as="geometry" />
        </mxCell>
        <mxCell id="aDKeScB1y4_EoyUzjA0F-15" value="&lt;font face=&quot;Times New Roman&quot;&gt;&lt;span style=&quot;font-size: 30px;&quot;&gt;预期&lt;/span&gt;&lt;/font&gt;&lt;div&gt;&lt;font face=&quot;Times New Roman&quot;&gt;&lt;span style=&quot;font-size: 30px;&quot;&gt;成果&lt;/span&gt;&lt;/font&gt;&lt;/div&gt;" style="rounded=0;whiteSpace=wrap;html=1;fillColor=#e1d5e7;strokeColor=#9673a6;" vertex="1" parent="1">
          <mxGeometry x="2.000909090909005" y="920.0027272727273" width="96" height="110" as="geometry" />
        </mxCell>
        <mxCell id="aDKeScB1y4_EoyUzjA0F-16" value="&lt;font face=&quot;Times New Roman&quot;&gt;&lt;span style=&quot;font-size: 30px;&quot;&gt;实验&lt;/span&gt;&lt;/font&gt;&lt;div&gt;&lt;font face=&quot;Times New Roman&quot;&gt;&lt;span style=&quot;font-size: 30px;&quot;&gt;验证&lt;/span&gt;&lt;/font&gt;&lt;/div&gt;" style="rounded=0;whiteSpace=wrap;html=1;fillColor=#e1d5e7;strokeColor=#9673a6;" vertex="1" parent="1">
          <mxGeometry x="4.000909090909005" y="750.0027272727273" width="96" height="110" as="geometry" />
        </mxCell>
        <mxCell id="aDKeScB1y4_EoyUzjA0F-17" value="" style="shape=flexArrow;endArrow=classic;html=1;rounded=0;fillColor=#986EBD;" edge="1" parent="1">
          <mxGeometry width="50" height="50" relative="1" as="geometry">
            <mxPoint x="116.000909090909" y="294.5827272727272" as="sourcePoint" />
            <mxPoint x="166.000909090909" y="295.00272727272727" as="targetPoint" />
          </mxGeometry>
        </mxCell>
        <mxCell id="aDKeScB1y4_EoyUzjA0F-18" value="" style="shape=flexArrow;endArrow=classic;html=1;rounded=0;fillColor=#986EBD;" edge="1" parent="1">
          <mxGeometry width="50" height="50" relative="1" as="geometry">
            <mxPoint x="116.000909090909" y="464.5827272727272" as="sourcePoint" />
            <mxPoint x="166.000909090909" y="464.75272727272727" as="targetPoint" />
          </mxGeometry>
        </mxCell>
        <mxCell id="aDKeScB1y4_EoyUzjA0F-19" value="" style="shape=flexArrow;endArrow=classic;html=1;rounded=0;fillColor=#986EBD;" edge="1" parent="1">
          <mxGeometry width="50" height="50" relative="1" as="geometry">
            <mxPoint x="116.000909090909" y="634.5827272727272" as="sourcePoint" />
            <mxPoint x="166.000909090909" y="634.7527272727273" as="targetPoint" />
          </mxGeometry>
        </mxCell>
        <mxCell id="aDKeScB1y4_EoyUzjA0F-20" value="" style="shape=flexArrow;endArrow=classic;html=1;rounded=0;fillColor=#986EBD;" edge="1" parent="1">
          <mxGeometry width="50" height="50" relative="1" as="geometry">
            <mxPoint x="116.000909090909" y="804.5827272727272" as="sourcePoint" />
            <mxPoint x="166.000909090909" y="804.7527272727273" as="targetPoint" />
          </mxGeometry>
        </mxCell>
        <mxCell id="aDKeScB1y4_EoyUzjA0F-21" value="" style="shape=flexArrow;endArrow=classic;html=1;rounded=0;fillColor=#986EBD;" edge="1" parent="1">
          <mxGeometry width="50" height="50" relative="1" as="geometry">
            <mxPoint x="116.000909090909" y="968.0027272727273" as="sourcePoint" />
            <mxPoint x="166.000909090909" y="968.1727272727273" as="targetPoint" />
          </mxGeometry>
        </mxCell>
        <mxCell id="aDKeScB1y4_EoyUzjA0F-22" value="" style="rounded=0;whiteSpace=wrap;html=1;strokeColor=#B3B3B3;" vertex="1" parent="1">
          <mxGeometry x="190.000909090909" y="230.00272727272724" width="620" height="130" as="geometry" />
        </mxCell>
        <mxCell id="aDKeScB1y4_EoyUzjA0F-23" value="&lt;font style=&quot;font-size: 24px;&quot; face=&quot;Times New Roman&quot;&gt;降低系统对通信拓扑的要求&lt;/font&gt;" style="rounded=1;whiteSpace=wrap;html=1;fillColor=#F9FFCF;strokeColor=#B3B3B3;" vertex="1" parent="1">
          <mxGeometry x="196.000909090909" y="252.50272727272724" width="190" height="85" as="geometry" />
        </mxCell>
        <mxCell id="aDKeScB1y4_EoyUzjA0F-24" value="&lt;font size=&quot;5&quot; face=&quot;Times New Roman&quot;&gt;放宽系统对输入与隐私的约束&lt;/font&gt;" style="rounded=1;whiteSpace=wrap;html=1;fillColor=#CFFFCC;strokeColor=#B3B3B3;" vertex="1" parent="1">
          <mxGeometry x="405.000909090909" y="252.50272727272724" width="190" height="85" as="geometry" />
        </mxCell>
        <mxCell id="aDKeScB1y4_EoyUzjA0F-25" value="&lt;font size=&quot;5&quot; face=&quot;Times New Roman&quot;&gt;解决系统状态信息缺失的问题&lt;/font&gt;" style="rounded=1;whiteSpace=wrap;html=1;fillColor=#CFFFF9;strokeColor=#B3B3B3;" vertex="1" parent="1">
          <mxGeometry x="606.000909090909" y="252.50272727272724" width="190" height="85" as="geometry" />
        </mxCell>
        <mxCell id="aDKeScB1y4_EoyUzjA0F-26" value="" style="rounded=0;whiteSpace=wrap;html=1;strokeColor=#B3B3B3;" vertex="1" parent="1">
          <mxGeometry x="190.000909090909" y="400.00272727272727" width="620" height="130" as="geometry" />
        </mxCell>
        <mxCell id="aDKeScB1y4_EoyUzjA0F-27" value="&lt;font size=&quot;5&quot; face=&quot;Times New Roman&quot;&gt;理想环境下的容错一致性&lt;/font&gt;" style="rounded=1;whiteSpace=wrap;html=1;fillColor=#F9FFCF;strokeColor=#B3B3B3;" vertex="1" parent="1">
          <mxGeometry x="196.000909090909" y="422.50272727272727" width="190" height="85" as="geometry" />
        </mxCell>
        <mxCell id="aDKeScB1y4_EoyUzjA0F-28" value="&lt;span style=&quot;font-family: &amp;quot;Times New Roman&amp;quot;; font-size: x-large;&quot;&gt;约束条件下的容错一致性&lt;/span&gt;" style="rounded=1;whiteSpace=wrap;html=1;fillColor=#CFFFCC;strokeColor=#B3B3B3;" vertex="1" parent="1">
          <mxGeometry x="405.000909090909" y="422.50272727272727" width="190" height="85" as="geometry" />
        </mxCell>
        <mxCell id="aDKeScB1y4_EoyUzjA0F-29" value="&lt;span style=&quot;font-family: &amp;quot;Times New Roman&amp;quot;; font-size: x-large;&quot;&gt;状态缺失下的容错一致性&lt;/span&gt;" style="rounded=1;whiteSpace=wrap;html=1;fillColor=#CFFFF9;strokeColor=#B3B3B3;" vertex="1" parent="1">
          <mxGeometry x="606.000909090909" y="422.50272727272727" width="190" height="85" as="geometry" />
        </mxCell>
        <mxCell id="aDKeScB1y4_EoyUzjA0F-30" value="" style="rounded=0;whiteSpace=wrap;html=1;strokeColor=#B3B3B3;" vertex="1" parent="1">
          <mxGeometry x="190.000909090909" y="570.0027272727273" width="620" height="140" as="geometry" />
        </mxCell>
        <mxCell id="aDKeScB1y4_EoyUzjA0F-31" value="&lt;div&gt;&lt;font style=&quot;font-size: 24px;&quot; face=&quot;Times New Roman&quot;&gt;深度强化学习框架与容错一致性研究的兼容问题&lt;/font&gt;&lt;br&gt;&lt;/div&gt;" style="rounded=1;whiteSpace=wrap;html=1;fillColor=#F9FFCF;strokeColor=#B3B3B3;" vertex="1" parent="1">
          <mxGeometry x="196.000909090909" y="582.5027272727273" width="190" height="117.5" as="geometry" />
        </mxCell>
        <mxCell id="aDKeScB1y4_EoyUzjA0F-32" value="&lt;span style=&quot;font-family: &amp;quot;Times New Roman&amp;quot;; font-size: 24.000002px;&quot;&gt;多智能体容错一致性研究中环境不稳定的问题&lt;/span&gt;" style="rounded=1;whiteSpace=wrap;html=1;fillColor=#CFFFCC;strokeColor=#B3B3B3;" vertex="1" parent="1">
          <mxGeometry x="405.000909090909" y="582.5027272727273" width="190" height="117.5" as="geometry" />
        </mxCell>
        <mxCell id="aDKeScB1y4_EoyUzjA0F-33" value="&lt;span style=&quot;font-family: &amp;quot;Times New Roman&amp;quot;; font-size: 24.000002px;&quot;&gt;邻居节点状态评估与其状态约束之间的冲突问题&lt;/span&gt;" style="rounded=1;whiteSpace=wrap;html=1;fillColor=#CFFFF9;strokeColor=#B3B3B3;" vertex="1" parent="1">
          <mxGeometry x="606.000909090909" y="582.5027272727273" width="190" height="117.5" as="geometry" />
        </mxCell>
        <mxCell id="aDKeScB1y4_EoyUzjA0F-34" value="&lt;span style=&quot;font-family: &amp;quot;Times New Roman&amp;quot;; font-size: 30px;&quot;&gt;多智能车队形容错控制分布式容错机器学习&lt;/span&gt;" style="rounded=0;whiteSpace=wrap;html=1;fillColor=#ffe6cc;strokeColor=#d79b00;" vertex="1" parent="1">
          <mxGeometry x="190.000909090909" y="750.0027272727273" width="620" height="110" as="geometry" />
        </mxCell>
        <mxCell id="aDKeScB1y4_EoyUzjA0F-35" value="&lt;div&gt;&lt;br&gt;&lt;/div&gt;" style="rounded=0;whiteSpace=wrap;html=1;fillColor=#ffe6cc;strokeColor=#d79b00;" vertex="1" parent="1">
          <mxGeometry x="190.000909090909" y="910.0027272727273" width="626" height="140" as="geometry" />
        </mxCell>
        <mxCell id="aDKeScB1y4_EoyUzjA0F-36" value="" style="shape=flexArrow;endArrow=classic;html=1;rounded=0;fillColor=#E63F1E;strokeColor=#B3B3B3;" edge="1" parent="1">
          <mxGeometry width="50" height="50" relative="1" as="geometry">
            <mxPoint x="486.000909090909" y="70.00272727272724" as="sourcePoint" />
            <mxPoint x="486.000909090909" y="120.00272727272724" as="targetPoint" />
          </mxGeometry>
        </mxCell>
        <mxCell id="aDKeScB1y4_EoyUzjA0F-37" value="" style="shape=flexArrow;endArrow=classic;html=1;rounded=0;exitX=0.478;exitY=1.094;exitDx=0;exitDy=0;exitPerimeter=0;fillColor=#E63F1E;strokeColor=#B3B3B3;" edge="1" parent="1" source="aDKeScB1y4_EoyUzjA0F-11">
          <mxGeometry width="50" height="50" relative="1" as="geometry">
            <mxPoint x="486.000909090909" y="190.00272727272724" as="sourcePoint" />
            <mxPoint x="486.000909090909" y="230.00272727272724" as="targetPoint" />
          </mxGeometry>
        </mxCell>
        <mxCell id="aDKeScB1y4_EoyUzjA0F-38" value="" style="shape=flexArrow;endArrow=classic;html=1;rounded=0;fillColor=#E63F1E;strokeColor=#B3B3B3;" edge="1" parent="1">
          <mxGeometry width="50" height="50" relative="1" as="geometry">
            <mxPoint x="486.000909090909" y="364.00272727272727" as="sourcePoint" />
            <mxPoint x="486.000909090909" y="400.00272727272727" as="targetPoint" />
          </mxGeometry>
        </mxCell>
        <mxCell id="aDKeScB1y4_EoyUzjA0F-39" value="" style="shape=flexArrow;endArrow=classic;html=1;rounded=0;fillColor=#E63F1E;strokeColor=#B3B3B3;" edge="1" parent="1">
          <mxGeometry width="50" height="50" relative="1" as="geometry">
            <mxPoint x="486.000909090909" y="534.0027272727273" as="sourcePoint" />
            <mxPoint x="486.000909090909" y="570.0027272727273" as="targetPoint" />
          </mxGeometry>
        </mxCell>
        <mxCell id="aDKeScB1y4_EoyUzjA0F-40" value="" style="shape=flexArrow;endArrow=classic;html=1;rounded=0;fillColor=#E63F1E;strokeColor=#B3B3B3;" edge="1" parent="1">
          <mxGeometry width="50" height="50" relative="1" as="geometry">
            <mxPoint x="486.000909090909" y="714.0027272727273" as="sourcePoint" />
            <mxPoint x="486.000909090909" y="750.0027272727273" as="targetPoint" />
          </mxGeometry>
        </mxCell>
        <mxCell id="aDKeScB1y4_EoyUzjA0F-41" value="" style="shape=flexArrow;endArrow=classic;html=1;rounded=0;exitX=0.478;exitY=1.021;exitDx=0;exitDy=0;exitPerimeter=0;fillColor=#E63F1E;strokeColor=#B3B3B3;" edge="1" parent="1">
          <mxGeometry width="50" height="50" relative="1" as="geometry">
            <mxPoint x="486.3609090909091" y="866.3127272727274" as="sourcePoint" />
            <mxPoint x="486.000909090909" y="910.0027272727273" as="targetPoint" />
          </mxGeometry>
        </mxCell>
        <mxCell id="aDKeScB1y4_EoyUzjA0F-42" value="&lt;div&gt;&lt;font style=&quot;font-size: 26px;&quot; face=&quot;Times New Roman&quot;&gt;构建基于深度强化学习框架和自适应方法的自学习模型&lt;/font&gt;&lt;/div&gt;&lt;div&gt;&lt;font style=&quot;font-size: 26px;&quot; face=&quot;Times New Roman&quot;&gt;建立一套系统性的约束条件下分布式容错一致性算法&lt;/font&gt;&lt;/div&gt;&lt;div&gt;&lt;span style=&quot;font-family: &amp;quot;Times New Roman&amp;quot;;&quot;&gt;&lt;font style=&quot;font-size: 26px;&quot;&gt;知识产权成果与人才培养&lt;/font&gt;&lt;/span&gt;&lt;/div&gt;" style="text;html=1;align=center;verticalAlign=middle;whiteSpace=wrap;rounded=0;" vertex="1" parent="1">
          <mxGeometry x="133.000909090909" y="969.0027272727273" width="740" height="30" as="geometry" />
        </mxCell>
      </root>
    </mxGraphModel>
  </diagram>
</mxfile>
